<svg xmlns="http://www.w3.org/2000/svg" width="53" height="40" viewBox="0 0 53 40"><g><g><g><path fill="#e3731c" d="M49.992 12.428V5.22h-4.907V2.296h-1.903V.42H33.51v16.811h18.942v-4.803z"/></g><g><g><g><path fill="#fff" d="M35.638 26.286c-1.676.268-2.533 1.495-2.533 3.652 0 2.172 1.141 3.624 2.891 3.624.815 0 1.554-.268 3.11-1.024v1.757c-1.867.848-2.965 1.11-4.469 1.11-1.628 0-2.773-.428-3.709-1.373-.958-.95-1.438-2.204-1.438-3.601 0-3.108 2.322-5.211 5.715-5.211 2.254 0 3.803 1.02 3.803 2.517 0 .965-.721 1.628-1.791 1.628-.55 0-1.001-.143-1.578-.475v-2.604z"/></g><g><path fill="#fff" d="M27.37 30.43c1.504-1.876 2.034-2.633 2.034-3.554 0-.917-.735-1.656-1.717-1.656-.605 0-1.15.283-1.415.577v3.822l-2.462 3.25v-7.408h-2.34l-3.892 6.39v-6.39h-1.345l-3.533.853v.894l1.927.194v7.837h2.49l3.732-6.076v6.076h2.728z"/></g><g><path fill="#fff" d="M5.262 38.31l1.615.355v.908H.54v-.908l1.444-.356V27.346H.38v-.94l3.876-1.166h1.006v1.31c1.815-1.07 2.439-1.26 3.37-1.26 2.15 0 3.737 1.965 3.737 4.685 0 3.144-2.117 5.26-5.454 5.26-.377 0-1.005-.023-1.653-.097v3.171zm0-4.287c.264.012.38.012.548.012 2.006 0 3.082-1.238 3.082-3.61 0-2.01-.88-3.078-2.504-3.078-.27 0-.554.033-1.127.101v6.575z"/></g></g><g><g><path fill="#e669a2" d="M49.99 12.43h2.46v4.803h-2.46z"/></g><g><path fill="#f3bc87" d="M43.18 2.3h1.903v2.925H43.18z"/></g><g><path fill="#ee9c34" d="M33.51.42h9.672v1.876H33.51z"/></g><g><path fill="#e3731c" d="M33.51 2.3h9.672v2.925H33.51z"/></g><g><path fill="#f3be26" d="M45.09 5.22h4.906v7.208H45.09z"/></g><g><path fill="#db4e18" d="M45.09 12.43h4.906v4.803H45.09z"/></g><g><path fill="#e88c14" d="M43.18 5.22h1.903v7.208H43.18z"/></g><g><path fill="#d1390d" d="M43.18 12.43h1.903v4.803H43.18z"/></g><g><path fill="#d85604" d="M39.56 12.428h3.622V5.22H33.51v4.802h6.05z"/></g><g><path fill="#c22303" d="M39.56 12.43h3.623v4.803H39.56z"/></g><g><path fill="#c14303" d="M33.51 10.03h6.05v2.407h-6.05z"/></g><g><path fill="#ad1b02" d="M33.51 12.43h6.05v4.803h-6.05z"/></g><g><path fill="#ad1b02" d="M23.81 17.24h9.699v2.402H23.81z"/></g></g></g></g></g></svg>